<mxfile host="app.diagrams.net" modified="2022-11-10T01:46:34.721Z" agent="5.0 (Windows NT 10.0; Win64; x64) AppleWebKit/537.36 (KHTML, like Gecko) Chrome/107.0.0.0 Safari/537.36" etag="QeuVeWZ9FwEvymxgW1qM" version="20.5.3" type="github">
  <diagram id="cUD36qCqRF6fG53A2jjg" name="第 1 页">
    <mxGraphModel dx="1182" dy="794" grid="1" gridSize="10" guides="1" tooltips="1" connect="1" arrows="1" fold="1" page="1" pageScale="1" pageWidth="827" pageHeight="1169" math="0" shadow="0">
      <root>
        <mxCell id="0" />
        <mxCell id="1" parent="0" />
        <mxCell id="RF0TyZBk8_eQY4mtFFgC-1" value="" style="rounded=0;whiteSpace=wrap;html=1;" vertex="1" parent="1">
          <mxGeometry x="350" y="380" width="120" height="60" as="geometry" />
        </mxCell>
        <mxCell id="RF0TyZBk8_eQY4mtFFgC-2" value="" style="swimlane;startSize=0;" vertex="1" parent="1">
          <mxGeometry x="310" y="310" width="200" height="200" as="geometry" />
        </mxCell>
      </root>
    </mxGraphModel>
  </diagram>
</mxfile>
